<svg width="16" height="16" viewBox="0 0 16 16" fill="none" xmlns="http://www.w3.org/2000/svg">
<path d="M6.66667 12C7.84999 11.9998 8.99921 11.6036 9.93134 10.8747L12.862 13.8053L13.8047 12.8627L10.874 9.93201C11.6033 8.99979 11.9997 7.8503 12 6.66668C12 3.72601 9.60734 1.33334 6.66667 1.33334C3.726 1.33334 1.33334 3.72601 1.33334 6.66668C1.33334 9.60734 3.726 12 6.66667 12ZM6.66667 2.66668C8.87267 2.66668 10.6667 4.46068 10.6667 6.66668C10.6667 8.87268 8.87267 10.6667 6.66667 10.6667C4.46067 10.6667 2.66667 8.87268 2.66667 6.66668C2.66667 4.46068 4.46067 2.66668 6.66667 2.66668Z" fill="#828282"/>
</svg>
